<svg xmlns="http://www.w3.org/2000/svg" viewBox="0 0 21.89 21.93"><defs><style>.cls-1{fill:#fc0;}</style></defs><title>bg_tel</title><g id="Layer_2" data-name="Layer 2"><g id="Layer_1-2" data-name="Layer 1"><path class="cls-1" d="M18.87,21.93h-.25a20.9,20.9,0,0,1-9.08-3.23,20.61,20.61,0,0,1-6.3-6.3A20.89,20.89,0,0,1,0,3.29,3,3,0,0,1,2.73,0H6A3,3,0,0,1,9,2.58a11.91,11.91,0,0,0,.65,2.6A3,3,0,0,1,9,8.34l-.72.72a15,15,0,0,0,4.59,4.59l.72-.72a3,3,0,0,1,3.17-.68,11.91,11.91,0,0,0,2.59.64,3,3,0,0,1,2.59,3v3a3,3,0,0,1-3,3ZM6,2H3a1,1,0,0,0-.77.36A1,1,0,0,0,2,3.09a18.86,18.86,0,0,0,2.91,8.22,18.63,18.63,0,0,0,5.7,5.7,18.88,18.88,0,0,0,8.2,2.92.9.9,0,0,0,.78-.29,1,1,0,0,0,.29-.71v-3a1,1,0,0,0-.86-1,13.86,13.86,0,0,1-3-.75,1,1,0,0,0-1.06.22l-1.27,1.27a1,1,0,0,1-1.2.16A17,17,0,0,1,6.11,9.4a1,1,0,0,1,.16-1.2L7.54,6.93a1,1,0,0,0,.22-1.05,13.87,13.87,0,0,1-.76-3A1,1,0,0,0,6,2Z"/></g></g></svg>